<mxfile host="app.diagrams.net" agent="Mozilla/5.0 (Windows NT 10.0; Win64; x64; rv:136.0) Gecko/20100101 Firefox/136.0" version="26.1.1">
  <diagram id="C5RBs43oDa-KdzZeNtuy" name="Page-1">
    <mxGraphModel dx="3905" dy="3284" grid="1" gridSize="10" guides="1" tooltips="1" connect="1" arrows="1" fold="1" page="1" pageScale="1" pageWidth="827" pageHeight="1169" math="0" shadow="0">
      <root>
        <mxCell id="WIyWlLk6GJQsqaUBKTNV-0" />
        <mxCell id="WIyWlLk6GJQsqaUBKTNV-1" parent="WIyWlLk6GJQsqaUBKTNV-0" />
        <mxCell id="zkfFHV4jXpPFQw0GAbJ--0" value="Account" style="swimlane;fontStyle=2;align=center;verticalAlign=top;childLayout=stackLayout;horizontal=1;startSize=26;horizontalStack=0;resizeParent=1;resizeLast=0;collapsible=1;marginBottom=0;rounded=0;shadow=0;strokeWidth=1;" parent="WIyWlLk6GJQsqaUBKTNV-1" vertex="1">
          <mxGeometry x="214" y="-279" width="400" height="468" as="geometry">
            <mxRectangle x="220" y="120" width="160" height="26" as="alternateBounds" />
          </mxGeometry>
        </mxCell>
        <mxCell id="zkfFHV4jXpPFQw0GAbJ--1" value="id : int" style="text;align=left;verticalAlign=top;spacingLeft=4;spacingRight=4;overflow=hidden;rotatable=0;points=[[0,0.5],[1,0.5]];portConstraint=eastwest;" parent="zkfFHV4jXpPFQw0GAbJ--0" vertex="1">
          <mxGeometry y="26" width="400" height="26" as="geometry" />
        </mxCell>
        <mxCell id="zkfFHV4jXpPFQw0GAbJ--2" value="CustNo : int" style="text;align=left;verticalAlign=top;spacingLeft=4;spacingRight=4;overflow=hidden;rotatable=0;points=[[0,0.5],[1,0.5]];portConstraint=eastwest;rounded=0;shadow=0;html=0;" parent="zkfFHV4jXpPFQw0GAbJ--0" vertex="1">
          <mxGeometry y="52" width="400" height="26" as="geometry" />
        </mxCell>
        <mxCell id="zkfFHV4jXpPFQw0GAbJ--3" value="balance : double" style="text;align=left;verticalAlign=top;spacingLeft=4;spacingRight=4;overflow=hidden;rotatable=0;points=[[0,0.5],[1,0.5]];portConstraint=eastwest;rounded=0;shadow=0;html=0;" parent="zkfFHV4jXpPFQw0GAbJ--0" vertex="1">
          <mxGeometry y="78" width="400" height="26" as="geometry" />
        </mxCell>
        <mxCell id="jipeBGJCbfSFsCI2ZeJN-34" value="dateCreated : LocalDate" style="text;strokeColor=none;align=left;fillColor=none;html=1;verticalAlign=middle;whiteSpace=wrap;rounded=0;" vertex="1" parent="zkfFHV4jXpPFQw0GAbJ--0">
          <mxGeometry y="104" width="400" height="30" as="geometry" />
        </mxCell>
        <mxCell id="zkfFHV4jXpPFQw0GAbJ--4" value="" style="line;html=1;strokeWidth=1;align=left;verticalAlign=middle;spacingTop=-1;spacingLeft=3;spacingRight=3;rotatable=0;labelPosition=right;points=[];portConstraint=eastwest;" parent="zkfFHV4jXpPFQw0GAbJ--0" vertex="1">
          <mxGeometry y="134" width="400" height="8" as="geometry" />
        </mxCell>
        <mxCell id="zkfFHV4jXpPFQw0GAbJ--5" value="+ Account(id: int, custNo: int, balance: double, dateCreated: LocalDate)" style="text;align=left;verticalAlign=top;spacingLeft=4;spacingRight=4;overflow=hidden;rotatable=0;points=[[0,0.5],[1,0.5]];portConstraint=eastwest;" parent="zkfFHV4jXpPFQw0GAbJ--0" vertex="1">
          <mxGeometry y="142" width="400" height="26" as="geometry" />
        </mxCell>
        <mxCell id="jipeBGJCbfSFsCI2ZeJN-35" value="&lt;div align=&quot;left&quot;&gt;&lt;code data-end=&quot;380&quot; data-start=&quot;364&quot;&gt;+ getId(): int&lt;/code&gt;&lt;/div&gt;" style="text;strokeColor=none;align=left;fillColor=none;html=1;verticalAlign=middle;whiteSpace=wrap;rounded=0;" vertex="1" parent="zkfFHV4jXpPFQw0GAbJ--0">
          <mxGeometry y="168" width="400" height="30" as="geometry" />
        </mxCell>
        <mxCell id="jipeBGJCbfSFsCI2ZeJN-36" value="&lt;div align=&quot;left&quot;&gt;&lt;code data-end=&quot;412&quot; data-start=&quot;388&quot;&gt;+ setId(id: int): void&lt;/code&gt;&lt;/div&gt;" style="text;strokeColor=none;align=left;fillColor=none;html=1;verticalAlign=middle;whiteSpace=wrap;rounded=0;" vertex="1" parent="zkfFHV4jXpPFQw0GAbJ--0">
          <mxGeometry y="198" width="400" height="30" as="geometry" />
        </mxCell>
        <mxCell id="jipeBGJCbfSFsCI2ZeJN-37" value="&lt;code data-start=&quot;420&quot; data-end=&quot;440&quot;&gt;+ getCustNo(): int&lt;/code&gt;" style="text;strokeColor=none;align=left;fillColor=none;html=1;verticalAlign=middle;whiteSpace=wrap;rounded=0;" vertex="1" parent="zkfFHV4jXpPFQw0GAbJ--0">
          <mxGeometry y="228" width="400" height="30" as="geometry" />
        </mxCell>
        <mxCell id="jipeBGJCbfSFsCI2ZeJN-38" value="&lt;div align=&quot;left&quot;&gt;&lt;code data-end=&quot;480&quot; data-start=&quot;448&quot;&gt;+ setCustNo(custNo: int): void&lt;/code&gt;&lt;/div&gt;" style="text;strokeColor=none;align=left;fillColor=none;html=1;verticalAlign=middle;whiteSpace=wrap;rounded=0;" vertex="1" parent="zkfFHV4jXpPFQw0GAbJ--0">
          <mxGeometry y="258" width="400" height="30" as="geometry" />
        </mxCell>
        <mxCell id="jipeBGJCbfSFsCI2ZeJN-39" value="&lt;div align=&quot;left&quot;&gt;&lt;code data-end=&quot;512&quot; data-start=&quot;488&quot;&gt;+ getBalance(): double&lt;/code&gt;&lt;/div&gt;" style="text;strokeColor=none;align=left;fillColor=none;html=1;verticalAlign=middle;whiteSpace=wrap;rounded=0;" vertex="1" parent="zkfFHV4jXpPFQw0GAbJ--0">
          <mxGeometry y="288" width="400" height="30" as="geometry" />
        </mxCell>
        <mxCell id="jipeBGJCbfSFsCI2ZeJN-40" value="&lt;code data-start=&quot;520&quot; data-end=&quot;557&quot;&gt;+ setBalance(balance: double): void&lt;/code&gt;" style="text;strokeColor=none;align=left;fillColor=none;html=1;verticalAlign=middle;whiteSpace=wrap;rounded=0;" vertex="1" parent="zkfFHV4jXpPFQw0GAbJ--0">
          <mxGeometry y="318" width="400" height="30" as="geometry" />
        </mxCell>
        <mxCell id="jipeBGJCbfSFsCI2ZeJN-41" value="&lt;div align=&quot;left&quot;&gt;&lt;code data-end=&quot;596&quot; data-start=&quot;565&quot;&gt;+ getDateCreated(): LocalDate&lt;/code&gt;&lt;/div&gt;" style="text;strokeColor=none;align=left;fillColor=none;html=1;verticalAlign=middle;whiteSpace=wrap;rounded=0;" vertex="1" parent="zkfFHV4jXpPFQw0GAbJ--0">
          <mxGeometry y="348" width="400" height="30" as="geometry" />
        </mxCell>
        <mxCell id="jipeBGJCbfSFsCI2ZeJN-42" value="&lt;div align=&quot;left&quot;&gt;&lt;code data-end=&quot;652&quot; data-start=&quot;604&quot;&gt;+ setDateCreated(dateCreated: LocalDate): void&lt;/code&gt;&lt;/div&gt;" style="text;strokeColor=none;align=left;fillColor=none;html=1;verticalAlign=middle;whiteSpace=wrap;rounded=0;" vertex="1" parent="zkfFHV4jXpPFQw0GAbJ--0">
          <mxGeometry y="378" width="400" height="30" as="geometry" />
        </mxCell>
        <mxCell id="jipeBGJCbfSFsCI2ZeJN-43" value="&lt;div align=&quot;left&quot;&gt;&lt;code data-end=&quot;693&quot; data-start=&quot;660&quot;&gt;+ deposit(amount: double): void&lt;/code&gt;&lt;/div&gt;" style="text;strokeColor=none;align=left;fillColor=none;html=1;verticalAlign=middle;whiteSpace=wrap;rounded=0;" vertex="1" parent="zkfFHV4jXpPFQw0GAbJ--0">
          <mxGeometry y="408" width="400" height="30" as="geometry" />
        </mxCell>
        <mxCell id="jipeBGJCbfSFsCI2ZeJN-44" value="&lt;div align=&quot;left&quot;&gt;&lt;code data-end=&quot;746&quot; data-start=&quot;701&quot;&gt;+ withdraw(amount: double): void (abstract)&lt;/code&gt;&lt;/div&gt;" style="text;strokeColor=none;align=left;fillColor=none;html=1;verticalAlign=middle;whiteSpace=wrap;rounded=0;" vertex="1" parent="zkfFHV4jXpPFQw0GAbJ--0">
          <mxGeometry y="438" width="400" height="30" as="geometry" />
        </mxCell>
        <mxCell id="zkfFHV4jXpPFQw0GAbJ--6" value="DepositAccount" style="swimlane;fontStyle=0;align=center;verticalAlign=top;childLayout=stackLayout;horizontal=1;startSize=26;horizontalStack=0;resizeParent=1;resizeLast=0;collapsible=1;marginBottom=0;rounded=0;shadow=0;strokeWidth=1;" parent="WIyWlLk6GJQsqaUBKTNV-1" vertex="1">
          <mxGeometry x="10" y="540" width="430" height="210" as="geometry">
            <mxRectangle x="130" y="380" width="160" height="26" as="alternateBounds" />
          </mxGeometry>
        </mxCell>
        <mxCell id="zkfFHV4jXpPFQw0GAbJ--7" value="- static AIR: double = 0.02" style="text;align=left;verticalAlign=top;spacingLeft=4;spacingRight=4;overflow=hidden;rotatable=0;points=[[0,0.5],[1,0.5]];portConstraint=eastwest;" parent="zkfFHV4jXpPFQw0GAbJ--6" vertex="1">
          <mxGeometry y="26" width="430" height="26" as="geometry" />
        </mxCell>
        <mxCell id="zkfFHV4jXpPFQw0GAbJ--9" value="" style="line;html=1;strokeWidth=1;align=left;verticalAlign=middle;spacingTop=-1;spacingLeft=3;spacingRight=3;rotatable=0;labelPosition=right;points=[];portConstraint=eastwest;" parent="zkfFHV4jXpPFQw0GAbJ--6" vertex="1">
          <mxGeometry y="52" width="430" height="10" as="geometry" />
        </mxCell>
        <mxCell id="zkfFHV4jXpPFQw0GAbJ--11" value="+ DepositAccount(id: int, custNo: int, balance: double, dateCreated: LocalDate)" style="text;align=left;verticalAlign=top;spacingLeft=4;spacingRight=4;overflow=hidden;rotatable=0;points=[[0,0.5],[1,0.5]];portConstraint=eastwest;" parent="zkfFHV4jXpPFQw0GAbJ--6" vertex="1">
          <mxGeometry y="62" width="430" height="26" as="geometry" />
        </mxCell>
        <mxCell id="zkfFHV4jXpPFQw0GAbJ--10" value="+ withdraw(amount: double): voidÂ &#xa;" style="text;align=left;verticalAlign=top;spacingLeft=4;spacingRight=4;overflow=hidden;rotatable=0;points=[[0,0.5],[1,0.5]];portConstraint=eastwest;fontStyle=4" parent="zkfFHV4jXpPFQw0GAbJ--6" vertex="1">
          <mxGeometry y="88" width="430" height="26" as="geometry" />
        </mxCell>
        <mxCell id="zkfFHV4jXpPFQw0GAbJ--12" value="" style="endArrow=block;endSize=10;endFill=0;shadow=0;strokeWidth=1;rounded=0;curved=0;edgeStyle=elbowEdgeStyle;elbow=vertical;" parent="WIyWlLk6GJQsqaUBKTNV-1" source="zkfFHV4jXpPFQw0GAbJ--6" target="zkfFHV4jXpPFQw0GAbJ--0" edge="1">
          <mxGeometry width="160" relative="1" as="geometry">
            <mxPoint x="200" y="203" as="sourcePoint" />
            <mxPoint x="200" y="203" as="targetPoint" />
          </mxGeometry>
        </mxCell>
        <mxCell id="zkfFHV4jXpPFQw0GAbJ--13" value="CurrentAccount" style="swimlane;fontStyle=0;align=center;verticalAlign=top;childLayout=stackLayout;horizontal=1;startSize=26;horizontalStack=0;resizeParent=1;resizeLast=0;collapsible=1;marginBottom=0;rounded=0;shadow=0;strokeWidth=1;" parent="WIyWlLk6GJQsqaUBKTNV-1" vertex="1">
          <mxGeometry x="490" y="540" width="540" height="220" as="geometry">
            <mxRectangle x="340" y="380" width="170" height="26" as="alternateBounds" />
          </mxGeometry>
        </mxCell>
        <mxCell id="zkfFHV4jXpPFQw0GAbJ--14" value="- static AIR: double = 0.005" style="text;align=left;verticalAlign=top;spacingLeft=4;spacingRight=4;overflow=hidden;rotatable=0;points=[[0,0.5],[1,0.5]];portConstraint=eastwest;" parent="zkfFHV4jXpPFQw0GAbJ--13" vertex="1">
          <mxGeometry y="26" width="540" height="26" as="geometry" />
        </mxCell>
        <mxCell id="jipeBGJCbfSFsCI2ZeJN-28" value="- overdraft: double" style="text;strokeColor=none;align=left;fillColor=none;html=1;verticalAlign=middle;whiteSpace=wrap;rounded=0;" vertex="1" parent="zkfFHV4jXpPFQw0GAbJ--13">
          <mxGeometry y="52" width="540" height="30" as="geometry" />
        </mxCell>
        <mxCell id="zkfFHV4jXpPFQw0GAbJ--15" value="" style="line;html=1;strokeWidth=1;align=left;verticalAlign=middle;spacingTop=-1;spacingLeft=3;spacingRight=3;rotatable=0;labelPosition=right;points=[];portConstraint=eastwest;" parent="zkfFHV4jXpPFQw0GAbJ--13" vertex="1">
          <mxGeometry y="82" width="540" height="18" as="geometry" />
        </mxCell>
        <mxCell id="jipeBGJCbfSFsCI2ZeJN-46" value="+ CurrentAccount(id: int, custNo: int, balance: double, dateCreated: LocalDate, overdraft: double)" style="text;html=1;align=left;verticalAlign=middle;resizable=0;points=[];autosize=1;strokeColor=none;fillColor=none;" vertex="1" parent="zkfFHV4jXpPFQw0GAbJ--13">
          <mxGeometry y="100" width="540" height="30" as="geometry" />
        </mxCell>
        <mxCell id="jipeBGJCbfSFsCI2ZeJN-47" value="&lt;div align=&quot;left&quot;&gt;+ withdraw(amount: double): void&lt;/div&gt;" style="text;strokeColor=none;align=left;fillColor=none;html=1;verticalAlign=middle;whiteSpace=wrap;rounded=0;" vertex="1" parent="zkfFHV4jXpPFQw0GAbJ--13">
          <mxGeometry y="130" width="540" height="30" as="geometry" />
        </mxCell>
        <mxCell id="zkfFHV4jXpPFQw0GAbJ--16" value="" style="endArrow=block;endSize=10;endFill=0;shadow=0;strokeWidth=1;rounded=0;curved=0;edgeStyle=elbowEdgeStyle;elbow=vertical;" parent="WIyWlLk6GJQsqaUBKTNV-1" source="zkfFHV4jXpPFQw0GAbJ--13" target="zkfFHV4jXpPFQw0GAbJ--0" edge="1">
          <mxGeometry width="160" relative="1" as="geometry">
            <mxPoint x="210" y="373" as="sourcePoint" />
            <mxPoint x="310" y="271" as="targetPoint" />
          </mxGeometry>
        </mxCell>
        <mxCell id="zkfFHV4jXpPFQw0GAbJ--17" value="Person&#xa;" style="swimlane;fontStyle=2;align=center;verticalAlign=top;childLayout=stackLayout;horizontal=1;startSize=26;horizontalStack=0;resizeParent=1;resizeLast=0;collapsible=1;marginBottom=0;rounded=0;shadow=0;strokeWidth=1;" parent="WIyWlLk6GJQsqaUBKTNV-1" vertex="1">
          <mxGeometry x="1380" y="-480" width="440" height="430" as="geometry">
            <mxRectangle x="550" y="140" width="160" height="26" as="alternateBounds" />
          </mxGeometry>
        </mxCell>
        <mxCell id="zkfFHV4jXpPFQw0GAbJ--18" value="firstName : String" style="text;align=left;verticalAlign=top;spacingLeft=4;spacingRight=4;overflow=hidden;rotatable=0;points=[[0,0.5],[1,0.5]];portConstraint=eastwest;" parent="zkfFHV4jXpPFQw0GAbJ--17" vertex="1">
          <mxGeometry y="26" width="440" height="26" as="geometry" />
        </mxCell>
        <mxCell id="zkfFHV4jXpPFQw0GAbJ--19" value="lastName : String" style="text;align=left;verticalAlign=top;spacingLeft=4;spacingRight=4;overflow=hidden;rotatable=0;points=[[0,0.5],[1,0.5]];portConstraint=eastwest;rounded=0;shadow=0;html=0;" parent="zkfFHV4jXpPFQw0GAbJ--17" vertex="1">
          <mxGeometry y="52" width="440" height="26" as="geometry" />
        </mxCell>
        <mxCell id="zkfFHV4jXpPFQw0GAbJ--20" value="address : String" style="text;align=left;verticalAlign=top;spacingLeft=4;spacingRight=4;overflow=hidden;rotatable=0;points=[[0,0.5],[1,0.5]];portConstraint=eastwest;rounded=0;shadow=0;html=0;" parent="zkfFHV4jXpPFQw0GAbJ--17" vertex="1">
          <mxGeometry y="78" width="440" height="26" as="geometry" />
        </mxCell>
        <mxCell id="zkfFHV4jXpPFQw0GAbJ--21" value="dob : LocalDate" style="text;align=left;verticalAlign=top;spacingLeft=4;spacingRight=4;overflow=hidden;rotatable=0;points=[[0,0.5],[1,0.5]];portConstraint=eastwest;rounded=0;shadow=0;html=0;" parent="zkfFHV4jXpPFQw0GAbJ--17" vertex="1">
          <mxGeometry y="104" width="440" height="26" as="geometry" />
        </mxCell>
        <mxCell id="zkfFHV4jXpPFQw0GAbJ--23" value="" style="line;html=1;strokeWidth=1;align=left;verticalAlign=middle;spacingTop=-1;spacingLeft=3;spacingRight=3;rotatable=0;labelPosition=right;points=[];portConstraint=eastwest;" parent="zkfFHV4jXpPFQw0GAbJ--17" vertex="1">
          <mxGeometry y="130" width="440" height="8" as="geometry" />
        </mxCell>
        <mxCell id="zkfFHV4jXpPFQw0GAbJ--24" value="+ Person(firstName: String, lastName: String, address: String, dob: LocalDate)" style="text;align=left;verticalAlign=top;spacingLeft=4;spacingRight=4;overflow=hidden;rotatable=0;points=[[0,0.5],[1,0.5]];portConstraint=eastwest;" parent="zkfFHV4jXpPFQw0GAbJ--17" vertex="1">
          <mxGeometry y="138" width="440" height="26" as="geometry" />
        </mxCell>
        <mxCell id="zkfFHV4jXpPFQw0GAbJ--25" value="+ getFirstName(): String" style="text;align=left;verticalAlign=top;spacingLeft=4;spacingRight=4;overflow=hidden;rotatable=0;points=[[0,0.5],[1,0.5]];portConstraint=eastwest;" parent="zkfFHV4jXpPFQw0GAbJ--17" vertex="1">
          <mxGeometry y="164" width="440" height="26" as="geometry" />
        </mxCell>
        <mxCell id="jipeBGJCbfSFsCI2ZeJN-72" value="&lt;div align=&quot;left&quot;&gt;&lt;code data-end=&quot;490&quot; data-start=&quot;449&quot;&gt;+ setFirstName(firstName: String): void&lt;/code&gt;&lt;/div&gt;" style="text;strokeColor=none;align=left;fillColor=none;html=1;verticalAlign=middle;whiteSpace=wrap;rounded=0;" vertex="1" parent="zkfFHV4jXpPFQw0GAbJ--17">
          <mxGeometry y="190" width="440" height="30" as="geometry" />
        </mxCell>
        <mxCell id="jipeBGJCbfSFsCI2ZeJN-73" value="&lt;div align=&quot;left&quot;&gt;&lt;code data-end=&quot;520&quot; data-start=&quot;495&quot;&gt;+ getLastName(): String&lt;/code&gt;&lt;/div&gt;" style="text;strokeColor=none;align=left;fillColor=none;html=1;verticalAlign=middle;whiteSpace=wrap;rounded=0;" vertex="1" parent="zkfFHV4jXpPFQw0GAbJ--17">
          <mxGeometry y="220" width="440" height="30" as="geometry" />
        </mxCell>
        <mxCell id="jipeBGJCbfSFsCI2ZeJN-74" value="&lt;code data-start=&quot;525&quot; data-end=&quot;564&quot;&gt;+ setLastName(lastName: String): void&lt;/code&gt;" style="text;strokeColor=none;align=left;fillColor=none;html=1;verticalAlign=middle;whiteSpace=wrap;rounded=0;" vertex="1" parent="zkfFHV4jXpPFQw0GAbJ--17">
          <mxGeometry y="250" width="440" height="30" as="geometry" />
        </mxCell>
        <mxCell id="jipeBGJCbfSFsCI2ZeJN-75" value="&lt;div align=&quot;left&quot;&gt;&lt;code data-end=&quot;593&quot; data-start=&quot;569&quot;&gt;+ getAddress(): String&lt;/code&gt;&lt;/div&gt;" style="text;strokeColor=none;align=left;fillColor=none;html=1;verticalAlign=middle;whiteSpace=wrap;rounded=0;" vertex="1" parent="zkfFHV4jXpPFQw0GAbJ--17">
          <mxGeometry y="280" width="440" height="30" as="geometry" />
        </mxCell>
        <mxCell id="jipeBGJCbfSFsCI2ZeJN-76" value="&lt;div align=&quot;left&quot;&gt;&lt;code data-end=&quot;635&quot; data-start=&quot;598&quot;&gt;+ setAddress(address: String): void&lt;/code&gt;&lt;/div&gt;" style="text;strokeColor=none;align=left;fillColor=none;html=1;verticalAlign=middle;whiteSpace=wrap;rounded=0;" vertex="1" parent="zkfFHV4jXpPFQw0GAbJ--17">
          <mxGeometry y="310" width="440" height="30" as="geometry" />
        </mxCell>
        <mxCell id="jipeBGJCbfSFsCI2ZeJN-78" value="&lt;div align=&quot;left&quot;&gt;&lt;code data-end=&quot;700&quot; data-start=&quot;668&quot;&gt;+ setDob(dob: LocalDate): void&lt;/code&gt;&lt;/div&gt;" style="text;strokeColor=none;align=left;fillColor=none;html=1;verticalAlign=middle;whiteSpace=wrap;rounded=0;" vertex="1" parent="zkfFHV4jXpPFQw0GAbJ--17">
          <mxGeometry y="340" width="440" height="30" as="geometry" />
        </mxCell>
        <mxCell id="jipeBGJCbfSFsCI2ZeJN-79" value="&lt;div align=&quot;left&quot;&gt;&lt;code data-end=&quot;727&quot; data-start=&quot;705&quot;&gt;+ toString(): String&lt;/code&gt;&lt;/div&gt;" style="text;strokeColor=none;align=left;fillColor=none;html=1;verticalAlign=middle;whiteSpace=wrap;rounded=0;" vertex="1" parent="zkfFHV4jXpPFQw0GAbJ--17">
          <mxGeometry y="370" width="440" height="30" as="geometry" />
        </mxCell>
        <mxCell id="jipeBGJCbfSFsCI2ZeJN-82" style="edgeStyle=orthogonalEdgeStyle;rounded=0;orthogonalLoop=1;jettySize=auto;html=1;" edge="1" parent="WIyWlLk6GJQsqaUBKTNV-1" source="jipeBGJCbfSFsCI2ZeJN-1">
          <mxGeometry relative="1" as="geometry">
            <mxPoint x="1560" y="-50" as="targetPoint" />
          </mxGeometry>
        </mxCell>
        <mxCell id="jipeBGJCbfSFsCI2ZeJN-1" value="BankStaff" style="swimlane;fontStyle=2;align=center;verticalAlign=top;childLayout=stackLayout;horizontal=1;startSize=26;horizontalStack=0;resizeParent=1;resizeLast=0;collapsible=1;marginBottom=0;rounded=0;shadow=0;strokeWidth=1;" vertex="1" parent="WIyWlLk6GJQsqaUBKTNV-1">
          <mxGeometry x="1840" y="30" width="600" height="258" as="geometry">
            <mxRectangle x="550" y="140" width="160" height="26" as="alternateBounds" />
          </mxGeometry>
        </mxCell>
        <mxCell id="jipeBGJCbfSFsCI2ZeJN-2" value="- empNo: int" style="text;align=left;verticalAlign=top;spacingLeft=4;spacingRight=4;overflow=hidden;rotatable=0;points=[[0,0.5],[1,0.5]];portConstraint=eastwest;" vertex="1" parent="jipeBGJCbfSFsCI2ZeJN-1">
          <mxGeometry y="26" width="600" height="26" as="geometry" />
        </mxCell>
        <mxCell id="jipeBGJCbfSFsCI2ZeJN-3" value="- jobTitle: String" style="text;align=left;verticalAlign=top;spacingLeft=4;spacingRight=4;overflow=hidden;rotatable=0;points=[[0,0.5],[1,0.5]];portConstraint=eastwest;rounded=0;shadow=0;html=0;" vertex="1" parent="jipeBGJCbfSFsCI2ZeJN-1">
          <mxGeometry y="52" width="600" height="26" as="geometry" />
        </mxCell>
        <mxCell id="jipeBGJCbfSFsCI2ZeJN-7" value="" style="line;html=1;strokeWidth=1;align=left;verticalAlign=middle;spacingTop=-1;spacingLeft=3;spacingRight=3;rotatable=0;labelPosition=right;points=[];portConstraint=eastwest;" vertex="1" parent="jipeBGJCbfSFsCI2ZeJN-1">
          <mxGeometry y="78" width="600" height="8" as="geometry" />
        </mxCell>
        <mxCell id="jipeBGJCbfSFsCI2ZeJN-8" value="+ BankStaff(firstName: String, lastName: String, address: String, dob: LocalDate, empNo: int, jobTitle: String)" style="text;align=left;verticalAlign=top;spacingLeft=4;spacingRight=4;overflow=hidden;rotatable=0;points=[[0,0.5],[1,0.5]];portConstraint=eastwest;" vertex="1" parent="jipeBGJCbfSFsCI2ZeJN-1">
          <mxGeometry y="86" width="600" height="26" as="geometry" />
        </mxCell>
        <mxCell id="jipeBGJCbfSFsCI2ZeJN-9" value="+ getEmpNo(): int" style="text;align=left;verticalAlign=top;spacingLeft=4;spacingRight=4;overflow=hidden;rotatable=0;points=[[0,0.5],[1,0.5]];portConstraint=eastwest;" vertex="1" parent="jipeBGJCbfSFsCI2ZeJN-1">
          <mxGeometry y="112" width="600" height="26" as="geometry" />
        </mxCell>
        <mxCell id="jipeBGJCbfSFsCI2ZeJN-88" value="&lt;div align=&quot;left&quot;&gt;&lt;code data-end=&quot;1440&quot; data-start=&quot;1410&quot;&gt;+ setEmpNo(empNo: int): void&lt;/code&gt;&lt;/div&gt;" style="text;strokeColor=none;align=left;fillColor=none;html=1;verticalAlign=middle;whiteSpace=wrap;rounded=0;" vertex="1" parent="jipeBGJCbfSFsCI2ZeJN-1">
          <mxGeometry y="138" width="600" height="30" as="geometry" />
        </mxCell>
        <mxCell id="jipeBGJCbfSFsCI2ZeJN-89" value="&lt;code data-start=&quot;1445&quot; data-end=&quot;1470&quot;&gt;+ getJobTitle(): String&lt;/code&gt;" style="text;strokeColor=none;align=left;fillColor=none;html=1;verticalAlign=middle;whiteSpace=wrap;rounded=0;" vertex="1" parent="jipeBGJCbfSFsCI2ZeJN-1">
          <mxGeometry y="168" width="600" height="30" as="geometry" />
        </mxCell>
        <mxCell id="jipeBGJCbfSFsCI2ZeJN-90" value="&lt;div align=&quot;left&quot;&gt;&lt;code data-end=&quot;1514&quot; data-start=&quot;1475&quot;&gt;+ setJobTitle(jobTitle: String): void&lt;/code&gt;&lt;/div&gt;" style="text;strokeColor=none;align=left;fillColor=none;html=1;verticalAlign=middle;whiteSpace=wrap;rounded=0;" vertex="1" parent="jipeBGJCbfSFsCI2ZeJN-1">
          <mxGeometry y="198" width="600" height="30" as="geometry" />
        </mxCell>
        <mxCell id="jipeBGJCbfSFsCI2ZeJN-91" value="&lt;code data-start=&quot;1519&quot; data-end=&quot;1555&quot;&gt;+ performDuties(): void (abstract)&lt;/code&gt;" style="text;strokeColor=none;align=left;fillColor=none;html=1;verticalAlign=middle;whiteSpace=wrap;rounded=0;" vertex="1" parent="jipeBGJCbfSFsCI2ZeJN-1">
          <mxGeometry y="228" width="600" height="30" as="geometry" />
        </mxCell>
        <mxCell id="jipeBGJCbfSFsCI2ZeJN-10" value="BankManager" style="swimlane;fontStyle=0;align=center;verticalAlign=top;childLayout=stackLayout;horizontal=1;startSize=26;horizontalStack=0;resizeParent=1;resizeLast=0;collapsible=1;marginBottom=0;rounded=0;shadow=0;strokeWidth=1;" vertex="1" parent="WIyWlLk6GJQsqaUBKTNV-1">
          <mxGeometry x="1790" y="462" width="890" height="128" as="geometry">
            <mxRectangle x="340" y="380" width="170" height="26" as="alternateBounds" />
          </mxGeometry>
        </mxCell>
        <mxCell id="jipeBGJCbfSFsCI2ZeJN-12" value="" style="line;html=1;strokeWidth=1;align=left;verticalAlign=middle;spacingTop=-1;spacingLeft=3;spacingRight=3;rotatable=0;labelPosition=right;points=[];portConstraint=eastwest;" vertex="1" parent="jipeBGJCbfSFsCI2ZeJN-10">
          <mxGeometry y="26" width="890" height="8" as="geometry" />
        </mxCell>
        <mxCell id="jipeBGJCbfSFsCI2ZeJN-96" value="&lt;div align=&quot;left&quot;&gt;&lt;code data-end=&quot;2316&quot; data-start=&quot;2201&quot;&gt;+ BankManager(firstName: String, lastName: String, address: String, dob: LocalDate, empNo: int, jobTitle: String)&lt;/code&gt;&lt;/div&gt;" style="text;strokeColor=none;align=left;fillColor=none;html=1;verticalAlign=middle;whiteSpace=wrap;rounded=0;" vertex="1" parent="jipeBGJCbfSFsCI2ZeJN-10">
          <mxGeometry y="34" width="890" height="30" as="geometry" />
        </mxCell>
        <mxCell id="jipeBGJCbfSFsCI2ZeJN-98" value="&lt;div align=&quot;left&quot;&gt;&lt;code data-end=&quot;2449&quot; data-start=&quot;2321&quot;&gt;+ createBankOfficer(String firstName, String lastName, String address, LocalDate dob, int empNo, String jobTitle): BankOfficer&lt;/code&gt;&lt;/div&gt;" style="text;strokeColor=none;align=left;fillColor=none;html=1;verticalAlign=middle;whiteSpace=wrap;rounded=0;" vertex="1" parent="jipeBGJCbfSFsCI2ZeJN-10">
          <mxGeometry y="64" width="890" height="30" as="geometry" />
        </mxCell>
        <mxCell id="jipeBGJCbfSFsCI2ZeJN-99" style="edgeStyle=orthogonalEdgeStyle;rounded=0;orthogonalLoop=1;jettySize=auto;html=1;" edge="1" parent="WIyWlLk6GJQsqaUBKTNV-1" source="jipeBGJCbfSFsCI2ZeJN-48">
          <mxGeometry relative="1" as="geometry">
            <mxPoint x="1429.9999999999995" y="-50" as="targetPoint" />
          </mxGeometry>
        </mxCell>
        <mxCell id="jipeBGJCbfSFsCI2ZeJN-48" value="Customer" style="swimlane;fontStyle=0;align=center;verticalAlign=top;childLayout=stackLayout;horizontal=1;startSize=26;horizontalStack=0;resizeParent=1;resizeLast=0;collapsible=1;marginBottom=0;rounded=0;shadow=0;strokeWidth=1;" vertex="1" parent="WIyWlLk6GJQsqaUBKTNV-1">
          <mxGeometry x="930" y="30" width="520" height="232" as="geometry">
            <mxRectangle x="550" y="140" width="160" height="26" as="alternateBounds" />
          </mxGeometry>
        </mxCell>
        <mxCell id="jipeBGJCbfSFsCI2ZeJN-53" value="- custNo: int" style="text;align=left;verticalAlign=top;spacingLeft=4;spacingRight=4;overflow=hidden;rotatable=0;points=[[0,0.5],[1,0.5]];portConstraint=eastwest;rounded=0;shadow=0;html=0;" vertex="1" parent="jipeBGJCbfSFsCI2ZeJN-48">
          <mxGeometry y="26" width="520" height="26" as="geometry" />
        </mxCell>
        <mxCell id="jipeBGJCbfSFsCI2ZeJN-83" value="&lt;div align=&quot;left&quot;&gt;&lt;code data-end=&quot;863&quot; data-start=&quot;836&quot;&gt;- accounts: List&amp;lt;Account&amp;gt;&lt;/code&gt;&lt;/div&gt;" style="text;strokeColor=none;align=left;fillColor=none;html=1;verticalAlign=middle;whiteSpace=wrap;rounded=0;" vertex="1" parent="jipeBGJCbfSFsCI2ZeJN-48">
          <mxGeometry y="52" width="520" height="30" as="geometry" />
        </mxCell>
        <mxCell id="jipeBGJCbfSFsCI2ZeJN-54" value="" style="line;html=1;strokeWidth=1;align=left;verticalAlign=middle;spacingTop=-1;spacingLeft=3;spacingRight=3;rotatable=0;labelPosition=right;points=[];portConstraint=eastwest;" vertex="1" parent="jipeBGJCbfSFsCI2ZeJN-48">
          <mxGeometry y="82" width="520" height="8" as="geometry" />
        </mxCell>
        <mxCell id="jipeBGJCbfSFsCI2ZeJN-55" value="+ Customer(firstName: String, lastName: String, address: String, dob: LocalDate, custNo: int)" style="text;align=left;verticalAlign=top;spacingLeft=4;spacingRight=4;overflow=hidden;rotatable=0;points=[[0,0.5],[1,0.5]];portConstraint=eastwest;" vertex="1" parent="jipeBGJCbfSFsCI2ZeJN-48">
          <mxGeometry y="90" width="520" height="26" as="geometry" />
        </mxCell>
        <mxCell id="jipeBGJCbfSFsCI2ZeJN-56" value="+ getCustNo(): int" style="text;align=left;verticalAlign=top;spacingLeft=4;spacingRight=4;overflow=hidden;rotatable=0;points=[[0,0.5],[1,0.5]];portConstraint=eastwest;" vertex="1" parent="jipeBGJCbfSFsCI2ZeJN-48">
          <mxGeometry y="116" width="520" height="26" as="geometry" />
        </mxCell>
        <mxCell id="jipeBGJCbfSFsCI2ZeJN-85" value="&lt;div align=&quot;left&quot;&gt;&lt;code data-end=&quot;1040&quot; data-start=&quot;1008&quot;&gt;+ setCustNo(custNo: int): void&lt;/code&gt;&lt;/div&gt;" style="text;strokeColor=none;align=left;fillColor=none;html=1;verticalAlign=middle;whiteSpace=wrap;rounded=0;" vertex="1" parent="jipeBGJCbfSFsCI2ZeJN-48">
          <mxGeometry y="142" width="520" height="30" as="geometry" />
        </mxCell>
        <mxCell id="jipeBGJCbfSFsCI2ZeJN-86" value="&lt;div align=&quot;left&quot;&gt;&lt;code data-end=&quot;1082&quot; data-start=&quot;1045&quot;&gt;+ addAccount(Account account): void&lt;/code&gt;&lt;/div&gt;" style="text;strokeColor=none;align=left;fillColor=none;html=1;verticalAlign=middle;whiteSpace=wrap;rounded=0;" vertex="1" parent="jipeBGJCbfSFsCI2ZeJN-48">
          <mxGeometry y="172" width="520" height="30" as="geometry" />
        </mxCell>
        <mxCell id="jipeBGJCbfSFsCI2ZeJN-87" value="&lt;div align=&quot;left&quot;&gt;&lt;code data-end=&quot;1119&quot; data-start=&quot;1087&quot;&gt;+ getAccounts(): List&amp;lt;Account&amp;gt;&lt;/code&gt;&lt;/div&gt;" style="text;strokeColor=none;align=left;fillColor=none;html=1;verticalAlign=middle;whiteSpace=wrap;rounded=0;" vertex="1" parent="jipeBGJCbfSFsCI2ZeJN-48">
          <mxGeometry y="202" width="520" height="30" as="geometry" />
        </mxCell>
        <mxCell id="jipeBGJCbfSFsCI2ZeJN-100" style="edgeStyle=orthogonalEdgeStyle;rounded=0;orthogonalLoop=1;jettySize=auto;html=1;entryX=0;entryY=0.5;entryDx=0;entryDy=0;" edge="1" parent="WIyWlLk6GJQsqaUBKTNV-1" source="jipeBGJCbfSFsCI2ZeJN-58" target="jipeBGJCbfSFsCI2ZeJN-90">
          <mxGeometry relative="1" as="geometry">
            <Array as="points">
              <mxPoint x="1640" y="243" />
            </Array>
          </mxGeometry>
        </mxCell>
        <mxCell id="jipeBGJCbfSFsCI2ZeJN-58" value="BankOfficer" style="swimlane;fontStyle=0;align=center;verticalAlign=top;childLayout=stackLayout;horizontal=1;startSize=26;horizontalStack=0;resizeParent=1;resizeLast=0;collapsible=1;marginBottom=0;rounded=0;shadow=0;strokeWidth=1;" vertex="1" parent="WIyWlLk6GJQsqaUBKTNV-1">
          <mxGeometry x="1110" y="462" width="620" height="188" as="geometry">
            <mxRectangle x="550" y="140" width="160" height="26" as="alternateBounds" />
          </mxGeometry>
        </mxCell>
        <mxCell id="jipeBGJCbfSFsCI2ZeJN-64" value="" style="line;html=1;strokeWidth=1;align=left;verticalAlign=middle;spacingTop=-1;spacingLeft=3;spacingRight=3;rotatable=0;labelPosition=right;points=[];portConstraint=eastwest;" vertex="1" parent="jipeBGJCbfSFsCI2ZeJN-58">
          <mxGeometry y="26" width="620" height="8" as="geometry" />
        </mxCell>
        <mxCell id="jipeBGJCbfSFsCI2ZeJN-65" value="+ BankOfficer(firstName: String, lastName: String, address: String, dob: LocalDate, empNo: int, jobTitle: String)" style="text;align=left;verticalAlign=top;spacingLeft=4;spacingRight=4;overflow=hidden;rotatable=0;points=[[0,0.5],[1,0.5]];portConstraint=eastwest;" vertex="1" parent="jipeBGJCbfSFsCI2ZeJN-58">
          <mxGeometry y="34" width="620" height="26" as="geometry" />
        </mxCell>
        <mxCell id="jipeBGJCbfSFsCI2ZeJN-66" value="+ createCustomer(String firstName, String lastName, String address, LocalDate dob, int custNo): Customer" style="text;align=left;verticalAlign=top;spacingLeft=4;spacingRight=4;overflow=hidden;rotatable=0;points=[[0,0.5],[1,0.5]];portConstraint=eastwest;" vertex="1" parent="jipeBGJCbfSFsCI2ZeJN-58">
          <mxGeometry y="60" width="620" height="26" as="geometry" />
        </mxCell>
        <mxCell id="jipeBGJCbfSFsCI2ZeJN-92" value="&lt;div align=&quot;left&quot;&gt;&lt;code data-end=&quot;1943&quot; data-start=&quot;1878&quot;&gt;+ createAccount(Customer customer, String accountType): Account&lt;/code&gt;&lt;/div&gt;" style="text;strokeColor=none;align=left;fillColor=none;html=1;verticalAlign=middle;whiteSpace=wrap;rounded=0;" vertex="1" parent="jipeBGJCbfSFsCI2ZeJN-58">
          <mxGeometry y="86" width="620" height="30" as="geometry" />
        </mxCell>
        <mxCell id="jipeBGJCbfSFsCI2ZeJN-93" value="&lt;div align=&quot;left&quot;&gt;&lt;code data-end=&quot;2003&quot; data-start=&quot;1948&quot;&gt;+ changeAIR(String accountType, double newRate): void&lt;/code&gt;&lt;/div&gt;" style="text;strokeColor=none;align=left;fillColor=none;html=1;verticalAlign=middle;whiteSpace=wrap;rounded=0;" vertex="1" parent="jipeBGJCbfSFsCI2ZeJN-58">
          <mxGeometry y="116" width="620" height="30" as="geometry" />
        </mxCell>
        <mxCell id="jipeBGJCbfSFsCI2ZeJN-94" value="&lt;div align=&quot;left&quot;&gt;&lt;code data-end=&quot;2079&quot; data-start=&quot;2008&quot;&gt;+ changeOverdraftLimit(CurrentAccount account, double newLimit): void&lt;/code&gt;&lt;/div&gt;" style="text;strokeColor=none;align=left;fillColor=none;html=1;verticalAlign=middle;whiteSpace=wrap;rounded=0;" vertex="1" parent="jipeBGJCbfSFsCI2ZeJN-58">
          <mxGeometry y="146" width="620" height="30" as="geometry" />
        </mxCell>
        <mxCell id="jipeBGJCbfSFsCI2ZeJN-102" style="edgeStyle=orthogonalEdgeStyle;rounded=0;orthogonalLoop=1;jettySize=auto;html=1;entryX=0.66;entryY=1.073;entryDx=0;entryDy=0;entryPerimeter=0;" edge="1" parent="WIyWlLk6GJQsqaUBKTNV-1" source="jipeBGJCbfSFsCI2ZeJN-10" target="jipeBGJCbfSFsCI2ZeJN-91">
          <mxGeometry relative="1" as="geometry" />
        </mxCell>
      </root>
    </mxGraphModel>
  </diagram>
</mxfile>
